<svg id="svg" version="1.1" xmlns="http://www.w3.org/2000/svg" xmlns:xlink="http://www.w3.org/1999/xlink" width="400" height="114.32098765432099" viewBox="0, 0, 400,114.32098765432099"><g id="svgg"><path id="path0" d="M4.128 7.010 C 3.522 7.330,3.000 8.054,3.000 8.575 C 3.000 8.717,2.925 8.833,2.833 8.833 C 2.723 8.833,2.667 16.194,2.667 30.583 C 2.667 44.972,2.723 52.333,2.833 52.333 C 2.925 52.333,3.000 52.506,3.000 52.716 C 3.000 53.147,4.116 54.333,4.521 54.333 C 4.662 54.333,4.816 54.371,4.862 54.418 C 4.909 54.464,14.796 54.502,26.833 54.502 C 38.871 54.502,48.758 54.464,48.804 54.418 C 48.851 54.371,49.018 54.333,49.175 54.333 C 49.554 54.333,50.667 53.090,50.667 52.666 C 50.667 52.483,50.742 52.333,50.833 52.333 C 50.944 52.333,51.000 44.972,51.000 30.583 C 51.000 16.194,50.944 8.833,50.833 8.833 C 50.742 8.833,50.667 8.714,50.667 8.567 C 50.667 8.087,50.125 7.371,49.492 7.016 L 48.871 6.667 26.811 6.674 C 5.189 6.681,4.738 6.688,4.128 7.010 M57.402 6.982 C 56.806 7.345,56.167 8.105,56.167 8.449 C 56.167 8.580,56.110 8.652,56.042 8.609 C 55.973 8.567,55.917 18.455,55.917 30.583 C 55.917 42.712,55.973 52.600,56.042 52.558 C 56.110 52.515,56.167 52.571,56.167 52.683 C 56.167 53.067,57.045 54.036,57.606 54.270 C 58.079 54.468,61.583 54.504,79.917 54.501 C 97.272 54.498,101.668 54.540,101.672 54.707 C 101.675 54.825,101.751 54.789,101.847 54.625 C 101.940 54.465,102.128 54.333,102.264 54.333 C 102.706 54.333,103.345 53.797,103.676 53.148 C 103.992 52.529,104.000 51.970,103.997 30.548 L 103.995 8.583 103.620 7.917 C 102.859 6.563,104.821 6.667,80.000 6.668 C 58.666 6.668,57.899 6.679,57.402 6.982 M110.159 7.042 C 108.902 7.889,109.003 5.845,108.999 30.585 L 108.995 52.726 109.425 53.376 C 109.662 53.734,110.106 54.131,110.412 54.259 C 110.719 54.387,111.008 54.587,111.055 54.704 C 111.122 54.872,111.143 54.872,111.154 54.707 C 111.164 54.540,115.562 54.498,132.897 54.501 C 144.848 54.503,154.767 54.462,154.938 54.410 C 155.664 54.189,156.087 53.878,156.408 53.332 C 156.909 52.480,156.883 8.885,156.381 7.860 C 155.753 6.575,157.582 6.667,132.816 6.667 L 110.716 6.667 110.159 7.042 M162.833 6.854 C 162.262 7.082,161.667 7.667,161.667 8.001 C 161.667 8.153,161.629 8.316,161.582 8.362 C 161.536 8.409,161.498 18.408,161.498 30.583 C 161.498 42.758,161.536 52.758,161.582 52.804 C 161.629 52.851,161.667 53.020,161.667 53.180 C 161.667 53.534,162.580 54.333,162.985 54.333 C 163.146 54.333,163.316 54.372,163.364 54.419 C 163.479 54.535,183.500 54.608,183.500 54.493 C 183.500 54.443,183.742 54.331,184.037 54.243 C 184.351 54.150,184.783 53.807,185.078 53.417 L 185.583 52.750 185.500 30.388 L 185.417 8.027 185.000 7.575 C 184.146 6.650,184.349 6.666,173.380 6.677 C 167.065 6.684,163.093 6.750,162.833 6.854 M191.417 6.899 C 190.790 7.177,190.417 7.592,190.090 8.376 C 189.863 8.917,189.833 11.532,189.833 30.626 L 189.833 52.263 190.208 52.997 C 191.010 54.565,188.528 54.405,213.611 54.500 C 225.759 54.546,235.733 54.527,235.776 54.458 C 235.818 54.390,235.993 54.333,236.164 54.333 C 236.628 54.333,237.456 53.561,237.692 52.908 C 237.807 52.592,237.941 52.333,237.992 52.333 C 238.106 52.333,238.114 8.948,238.000 8.833 C 237.954 8.787,237.767 8.456,237.583 8.097 C 236.825 6.611,239.257 6.755,214.113 6.714 C 195.945 6.684,191.826 6.718,191.417 6.899 M244.833 6.787 C 244.207 7.022,243.683 7.546,243.576 8.044 C 243.513 8.341,243.432 8.633,243.396 8.694 C 243.298 8.861,243.316 52.372,243.414 52.470 C 243.461 52.517,243.500 52.690,243.500 52.855 C 243.500 53.258,244.462 54.333,244.823 54.333 C 244.981 54.333,245.149 54.371,245.196 54.418 C 245.352 54.574,289.126 54.507,289.538 54.351 C 290.063 54.151,291.000 53.074,291.000 52.671 C 291.000 52.496,291.075 52.307,291.167 52.250 C 291.384 52.116,291.398 9.284,291.181 8.873 C 291.097 8.714,290.935 8.335,290.823 8.031 C 290.710 7.727,290.349 7.296,290.020 7.073 L 289.423 6.667 267.253 6.680 C 255.060 6.687,244.971 6.735,244.833 6.787 M297.397 6.905 C 296.848 7.145,296.002 8.119,295.997 8.516 C 295.995 8.706,295.965 8.704,295.833 8.500 C 295.736 8.350,295.671 8.329,295.669 8.448 C 295.668 8.558,295.742 8.693,295.833 8.750 C 295.943 8.818,296.000 16.276,296.000 30.583 C 296.000 44.890,295.943 52.349,295.833 52.417 C 295.742 52.473,295.668 52.609,295.669 52.718 C 295.671 52.855,295.715 52.849,295.811 52.697 C 295.912 52.538,296.009 52.618,296.163 52.992 C 296.413 53.595,297.232 54.333,297.652 54.333 C 297.813 54.333,297.983 54.371,298.029 54.418 C 298.146 54.534,341.558 54.525,341.941 54.409 C 342.688 54.182,343.103 53.862,343.453 53.245 L 343.828 52.583 343.830 30.583 C 343.833 6.204,343.910 7.925,342.779 7.095 C 342.173 6.650,298.399 6.467,297.397 6.905 M350.503 6.959 C 350.184 7.119,349.753 7.505,349.545 7.816 L 349.167 8.383 349.167 30.483 C 349.167 54.973,349.090 53.242,350.221 54.071 C 350.706 54.428,394.816 54.809,394.972 54.458 C 395.003 54.390,395.161 54.333,395.325 54.333 C 395.488 54.333,395.821 54.177,396.064 53.985 C 397.063 53.200,397.002 54.705,397.002 30.482 L 397.002 8.285 396.576 7.725 C 395.708 6.587,397.469 6.667,373.133 6.667 C 352.473 6.667,351.047 6.686,350.503 6.959 M189.833 67.583 L 189.833 75.000 210.792 74.998 C 233.617 74.996,232.367 75.047,234.192 74.054 C 235.870 73.140,237.530 70.779,237.771 68.962 C 237.828 68.528,237.941 68.214,238.021 68.263 C 238.101 68.313,238.166 68.030,238.164 67.635 C 238.162 67.179,238.110 66.998,238.021 67.139 C 237.928 67.285,237.844 67.087,237.773 66.555 C 237.412 63.836,234.417 60.842,231.756 60.542 C 231.340 60.495,231.000 60.391,231.000 60.312 C 231.000 60.230,221.976 60.167,210.417 60.167 L 189.833 60.167 189.833 67.583 M349.167 67.583 L 349.167 75.000 370.042 74.998 C 387.466 74.997,391.044 74.958,391.686 74.763 C 395.973 73.462,398.267 68.753,396.463 64.959 C 395.361 62.643,393.026 60.779,390.929 60.543 C 390.510 60.495,390.167 60.391,390.167 60.312 C 390.167 60.230,381.179 60.167,369.667 60.167 L 349.167 60.167 349.167 67.583 M26.333 60.500 C 26.196 60.597,25.708 60.662,25.250 60.644 C 24.792 60.627,24.285 60.670,24.125 60.741 C 23.965 60.811,23.728 60.829,23.600 60.779 C 23.471 60.730,23.004 60.798,22.562 60.931 C 22.120 61.065,21.662 61.137,21.546 61.092 C 21.429 61.047,21.333 61.082,21.333 61.169 C 21.333 61.256,21.108 61.301,20.833 61.269 C 20.558 61.237,20.333 61.273,20.333 61.349 C 20.333 61.425,19.977 61.595,19.542 61.727 C 17.742 62.273,14.741 63.814,12.750 65.214 C 11.082 66.386,9.452 68.011,7.503 70.443 C 7.418 70.549,7.086 71.047,6.765 71.549 C 6.443 72.051,6.046 72.597,5.882 72.761 C 5.718 72.925,5.610 73.087,5.643 73.121 C 5.676 73.155,5.353 73.966,4.925 74.924 C 4.498 75.882,4.118 76.822,4.081 77.013 C 3.956 77.660,3.811 78.000,3.661 78.000 C 3.578 78.000,3.554 78.112,3.606 78.250 C 3.659 78.387,3.630 78.500,3.541 78.500 C 3.452 78.500,3.402 78.706,3.430 78.958 C 3.495 79.533,3.179 80.833,2.974 80.833 C 2.885 80.833,2.888 80.958,2.983 81.134 C 3.072 81.302,3.082 81.535,3.003 81.661 C 2.926 81.786,2.904 82.142,2.955 82.453 C 3.006 82.767,2.955 83.190,2.839 83.406 C 2.703 83.661,2.669 84.099,2.740 84.688 C 2.799 85.181,2.875 85.973,2.908 86.449 C 2.941 86.925,3.020 87.397,3.082 87.498 C 3.144 87.599,3.105 87.790,2.994 87.924 C 2.883 88.057,2.863 88.167,2.949 88.167 C 3.069 88.167,3.386 89.332,3.582 90.500 C 4.458 95.700,10.448 103.280,15.667 105.792 C 17.525 106.686,19.761 107.546,20.583 107.682 C 20.675 107.697,21.087 107.809,21.500 107.931 C 22.958 108.361,23.715 108.386,37.206 108.449 L 50.829 108.513 50.873 95.407 C 50.897 88.199,50.863 82.268,50.797 82.228 C 50.731 82.187,50.683 81.913,50.691 81.618 C 50.698 81.324,50.576 80.536,50.420 79.868 C 50.264 79.199,50.180 78.539,50.233 78.401 C 50.286 78.262,50.265 78.189,50.186 78.238 C 50.106 78.287,49.945 77.972,49.826 77.539 C 49.708 77.105,49.443 76.375,49.238 75.917 C 49.033 75.458,48.670 74.642,48.432 74.103 C 47.940 72.992,46.669 70.845,46.217 70.365 C 46.052 70.189,45.226 69.266,44.383 68.314 C 42.031 65.661,39.388 63.820,35.833 62.360 C 34.559 61.837,31.824 61.000,31.388 61.000 C 31.256 61.000,31.187 60.936,31.235 60.857 C 31.284 60.779,31.138 60.750,30.912 60.794 C 30.637 60.846,30.499 60.796,30.497 60.644 C 30.495 60.454,30.471 60.455,30.349 60.648 C 30.246 60.809,30.059 60.841,29.726 60.755 C 29.464 60.687,28.912 60.609,28.500 60.580 C 28.087 60.551,27.488 60.482,27.167 60.425 C 26.846 60.369,26.471 60.403,26.333 60.500 M172.333 60.561 C 172.333 60.641,172.146 60.670,171.917 60.626 C 171.688 60.582,171.500 60.619,171.500 60.708 C 171.500 60.797,171.243 60.840,170.928 60.803 C 170.614 60.766,170.386 60.785,170.423 60.843 C 170.459 60.902,170.173 61.045,169.786 61.160 C 166.384 62.177,163.018 65.785,161.981 69.527 C 161.571 71.009,161.461 99.365,161.865 99.670 C 161.928 99.718,162.015 99.950,162.057 100.185 C 162.388 102.008,164.704 105.138,166.665 106.412 C 171.194 109.354,175.882 109.304,180.496 106.264 C 182.470 104.964,184.696 101.567,185.174 99.125 C 185.295 98.506,185.460 98.000,185.540 98.000 C 185.621 98.000,185.640 97.924,185.583 97.832 C 185.526 97.740,185.493 95.959,185.510 93.874 C 185.657 76.125,185.657 72.407,185.510 71.875 C 185.400 71.477,185.404 71.179,185.523 70.956 C 185.624 70.769,185.630 70.669,185.539 70.726 C 185.448 70.782,185.281 70.368,185.159 69.788 C 185.039 69.217,184.800 68.430,184.628 68.040 C 184.457 67.649,184.369 67.244,184.434 67.139 C 184.502 67.028,184.478 66.994,184.376 67.057 C 184.277 67.118,184.041 66.862,183.840 66.476 C 183.004 64.872,180.413 62.504,178.583 61.671 C 177.665 61.254,176.421 60.844,176.052 60.839 C 175.851 60.836,175.644 60.765,175.593 60.682 C 175.542 60.599,175.351 60.570,175.169 60.618 C 174.987 60.665,174.706 60.649,174.544 60.583 C 174.120 60.407,172.333 60.390,172.333 60.561 M319.410 60.511 C 319.349 60.610,318.912 60.671,318.431 60.649 C 317.953 60.627,317.487 60.655,317.396 60.711 C 317.305 60.767,316.935 60.812,316.574 60.811 C 316.013 60.808,314.175 61.231,312.228 61.810 C 310.050 62.458,306.333 64.639,304.162 66.542 C 302.870 67.675,300.167 70.629,300.167 70.907 C 300.167 70.963,299.873 71.475,299.513 72.046 C 298.053 74.365,296.789 77.634,296.324 80.292 C 296.208 80.956,296.067 81.500,296.011 81.500 C 295.954 81.500,295.925 81.819,295.945 82.208 C 295.979 82.863,295.971 82.879,295.833 82.417 C 295.710 82.001,295.699 82.043,295.768 82.667 C 295.998 84.732,296.020 85.547,295.848 85.718 C 295.748 85.818,295.677 86.166,295.689 86.492 L 295.711 87.083 295.843 86.500 C 295.968 85.953,295.974 85.966,295.945 86.708 C 295.928 87.144,295.980 87.500,296.060 87.500 C 296.140 87.500,296.170 87.688,296.126 87.917 C 296.082 88.146,296.102 88.333,296.171 88.333 C 296.387 88.333,296.469 89.406,296.272 89.657 C 296.142 89.822,296.141 89.863,296.267 89.787 C 296.499 89.648,297.095 91.545,296.912 91.841 C 296.833 91.968,296.849 92.010,296.953 91.946 C 297.051 91.885,297.242 92.211,297.404 92.712 C 299.132 98.087,304.367 103.750,309.885 106.212 C 312.330 107.303,315.664 108.269,316.719 108.194 C 316.976 108.175,317.268 108.210,317.367 108.271 C 317.638 108.438,322.500 108.439,322.500 108.272 C 322.500 108.193,322.687 108.164,322.917 108.207 C 323.309 108.282,325.747 107.767,327.125 107.318 C 333.544 105.226,338.697 100.737,341.484 94.811 C 342.258 93.166,343.167 90.603,343.167 90.065 C 343.167 89.917,343.246 89.863,343.359 89.933 C 343.472 90.002,343.507 89.979,343.443 89.876 C 343.293 89.633,343.507 88.652,343.687 88.763 C 343.897 88.893,343.868 88.601,343.648 88.381 C 343.542 88.276,343.521 88.101,343.599 87.975 C 343.674 87.854,343.713 87.502,343.686 87.192 C 343.651 86.784,343.694 86.664,343.841 86.754 C 343.971 86.835,344.016 86.797,343.966 86.648 C 343.901 86.454,341.735 86.403,330.569 86.333 C 320.302 86.269,317.166 86.202,316.884 86.040 C 315.892 85.473,315.715 84.324,316.486 83.461 L 316.973 82.917 330.385 82.871 C 343.588 82.826,343.798 82.821,343.883 82.496 C 343.930 82.315,343.911 82.202,343.840 82.246 C 343.770 82.289,343.660 81.823,343.598 81.209 C 343.272 78.035,341.162 72.774,339.330 70.571 C 338.535 69.615,338.295 69.187,338.692 69.433 C 338.813 69.507,338.840 69.478,338.764 69.356 C 338.698 69.249,338.585 69.198,338.513 69.242 C 338.297 69.375,337.619 68.546,337.758 68.320 C 337.835 68.197,337.816 68.158,337.711 68.222 C 337.495 68.356,337.124 67.936,337.293 67.750 C 337.361 67.675,337.336 67.659,337.236 67.716 C 337.137 67.772,336.687 67.442,336.236 66.983 C 335.060 65.783,331.322 63.350,329.430 62.554 C 327.269 61.643,324.169 60.776,323.186 60.807 C 322.875 60.817,322.542 60.776,322.444 60.716 C 322.347 60.656,321.915 60.625,321.484 60.648 C 321.053 60.671,320.651 60.609,320.590 60.511 C 320.448 60.280,319.552 60.280,319.410 60.511 M68.600 60.701 C 68.484 60.765,68.039 60.798,67.611 60.773 C 67.183 60.748,66.833 60.779,66.833 60.842 C 66.833 60.905,66.477 61.052,66.042 61.169 C 63.437 61.870,60.348 64.085,58.758 66.395 C 58.406 66.905,58.070 67.293,58.012 67.257 C 57.953 67.221,57.896 67.317,57.885 67.471 C 57.875 67.624,57.570 68.462,57.208 69.333 C 56.169 71.836,56.167 71.881,56.167 91.220 L 56.167 108.500 62.750 108.500 L 69.333 108.500 69.333 97.275 L 69.333 86.049 69.715 85.483 C 70.512 84.298,71.982 84.249,72.674 85.384 C 72.987 85.898,72.999 86.310,72.999 97.184 L 73.000 108.451 76.600 108.571 C 78.581 108.636,81.768 108.637,83.684 108.571 L 87.167 108.452 87.167 97.082 C 87.167 85.935,87.173 85.703,87.503 85.285 C 88.261 84.321,89.479 84.367,90.235 85.387 C 90.579 85.852,90.584 85.992,90.628 97.179 L 90.673 108.500 97.335 108.500 L 103.997 108.500 104.043 91.125 C 104.068 81.476,104.154 73.572,104.237 73.349 C 104.345 73.058,104.333 72.981,104.193 73.067 C 104.065 73.146,104.000 73.036,104.000 72.742 C 104.000 71.415,102.978 68.568,101.890 66.864 C 100.219 64.250,96.546 61.601,93.839 61.059 C 93.564 61.004,93.369 60.910,93.406 60.850 C 93.443 60.790,93.106 60.756,92.656 60.775 C 92.206 60.794,91.807 60.758,91.768 60.696 C 91.703 60.591,90.789 60.604,89.000 60.737 C 87.582 60.843,85.437 61.630,83.712 62.678 C 83.119 63.038,82.555 63.284,82.458 63.224 C 82.361 63.164,82.330 63.193,82.388 63.287 C 82.447 63.382,81.953 63.962,81.291 64.576 L 80.088 65.694 79.336 64.869 C 77.494 62.848,72.626 60.356,71.370 60.791 C 71.252 60.832,71.027 60.814,70.870 60.752 C 70.471 60.594,68.856 60.558,68.600 60.701 M265.588 60.707 C 265.466 60.776,264.909 60.810,264.350 60.784 C 263.791 60.759,263.333 60.805,263.333 60.888 C 263.333 60.971,263.187 61.001,263.008 60.954 C 262.829 60.907,262.660 60.933,262.633 61.012 C 262.606 61.090,262.316 61.187,261.990 61.227 C 261.212 61.323,259.170 61.957,258.889 62.190 C 258.768 62.290,258.511 62.331,258.318 62.281 C 258.125 62.231,258.013 62.236,258.070 62.292 C 258.127 62.349,257.515 62.728,256.712 63.134 C 255.908 63.541,254.850 64.146,254.361 64.478 C 253.873 64.811,253.348 65.158,253.195 65.250 C 253.042 65.342,252.491 65.773,251.971 66.208 C 251.025 67.001,250.704 67.182,250.939 66.792 C 251.025 66.648,250.977 66.654,250.784 66.811 C 250.630 66.936,250.540 67.096,250.583 67.167 C 250.627 67.238,250.546 67.393,250.403 67.511 C 247.232 70.143,243.852 77.021,243.407 81.750 C 243.381 82.025,243.342 82.362,243.320 82.500 C 243.299 82.637,243.293 88.544,243.307 95.625 L 243.333 108.500 254.333 108.500 L 265.333 108.500 265.333 97.120 C 265.333 84.502,265.270 85.218,266.428 84.734 C 267.169 84.425,267.914 84.599,268.420 85.201 L 268.833 85.692 268.833 97.096 L 268.833 108.500 279.912 108.500 L 290.990 108.500 291.037 95.792 C 291.083 83.308,291.073 82.964,290.587 79.750 C 290.560 79.567,290.445 79.079,290.333 78.667 C 290.220 78.254,290.112 77.842,290.093 77.750 C 288.936 72.290,283.205 65.653,277.324 62.961 C 276.528 62.597,276.235 62.387,276.377 62.284 C 276.516 62.184,276.484 62.168,276.278 62.234 C 275.860 62.370,275.144 62.171,275.277 61.956 C 275.336 61.860,275.306 61.831,275.209 61.891 C 275.112 61.950,274.524 61.842,273.901 61.650 C 273.279 61.458,272.503 61.267,272.177 61.227 C 271.850 61.187,271.562 61.093,271.536 61.018 C 271.510 60.943,271.292 60.919,271.053 60.965 C 270.813 61.011,270.659 60.981,270.709 60.899 C 270.760 60.817,270.340 60.737,269.776 60.721 C 269.212 60.705,268.088 60.668,267.280 60.638 C 266.471 60.608,265.710 60.639,265.588 60.707 M126.708 60.792 L 109.000 60.835 109.000 67.417 L 109.000 74.000 120.008 74.000 C 132.087 74.000,131.717 73.970,132.247 74.995 C 132.565 75.609,132.565 75.891,132.247 76.505 C 131.717 77.530,132.087 77.500,120.008 77.500 L 109.000 77.500 109.000 84.500 L 109.000 91.500 119.729 91.500 C 125.630 91.500,130.692 91.547,130.977 91.604 C 132.116 91.832,132.780 93.143,132.262 94.144 C 131.715 95.201,132.126 95.167,120.008 95.167 L 109.000 95.167 109.000 101.833 L 109.000 108.500 126.719 108.500 C 144.931 108.500,145.284 108.488,147.486 107.819 C 151.381 106.635,155.415 102.616,156.182 99.157 C 156.303 98.612,156.443 98.167,156.493 98.167 C 156.593 98.166,156.632 97.371,156.649 95.000 C 156.660 93.429,156.640 93.155,156.410 91.796 C 156.107 90.001,154.559 87.344,152.893 85.757 L 151.805 84.722 152.780 83.736 C 154.956 81.537,156.198 79.141,156.582 76.398 C 156.737 75.292,156.653 71.000,156.477 71.000 C 156.418 71.000,156.322 70.740,156.262 70.423 C 155.970 68.868,154.403 66.245,152.965 64.908 C 150.554 62.664,149.316 61.945,146.542 61.182 C 146.152 61.074,145.833 60.933,145.833 60.868 C 145.833 60.803,145.514 60.750,145.124 60.750 C 144.735 60.750,136.448 60.769,126.708 60.792 M189.833 84.336 L 189.833 91.673 211.208 91.628 L 232.583 91.583 233.711 91.039 C 235.765 90.047,237.069 88.435,237.642 86.178 C 237.807 85.529,237.992 85.048,238.054 85.110 C 238.116 85.172,238.167 84.905,238.167 84.518 C 238.167 84.091,238.101 83.854,238.000 83.917 C 237.906 83.975,237.833 83.842,237.833 83.614 C 237.833 83.181,237.491 82.105,237.063 81.191 C 236.298 79.558,233.585 77.593,231.805 77.382 C 231.362 77.330,231.000 77.222,231.000 77.143 C 231.000 77.064,221.807 77.000,210.417 77.000 L 189.833 77.000 189.833 84.336 M349.167 84.335 L 349.167 91.670 370.310 91.665 L 391.453 91.659 392.309 91.246 C 392.780 91.019,393.260 90.833,393.377 90.833 C 394.170 90.833,396.111 88.420,396.671 86.737 C 396.994 85.768,397.240 82.833,396.999 82.833 C 396.953 82.833,396.736 82.371,396.516 81.805 C 395.724 79.761,393.051 77.628,390.972 77.382 C 390.529 77.330,390.167 77.222,390.167 77.143 C 390.167 77.064,381.011 77.000,369.667 77.000 L 349.167 77.000 349.167 84.335 M189.833 101.165 L 189.833 108.500 210.708 108.498 C 233.393 108.496,232.478 108.532,234.127 107.567 C 236.175 106.369,237.833 103.897,237.833 102.044 C 237.833 101.822,237.907 101.692,238.000 101.750 C 238.101 101.813,238.166 101.572,238.164 101.135 C 238.162 100.610,238.118 100.484,238.000 100.667 C 237.875 100.861,237.838 100.812,237.836 100.448 C 237.834 100.128,237.899 100.014,238.042 100.086 C 238.156 100.144,238.131 100.092,237.985 99.971 C 237.839 99.849,237.592 99.364,237.435 98.892 C 237.064 97.770,236.301 96.634,235.486 95.989 C 235.126 95.704,234.881 95.391,234.942 95.293 C 235.002 95.195,234.975 95.162,234.881 95.220 C 234.788 95.278,234.292 95.098,233.779 94.820 C 232.119 93.922,232.582 93.940,210.458 93.884 L 189.833 93.831 189.833 101.165 M349.167 101.165 L 349.167 108.500 370.042 108.498 C 392.404 108.496,391.476 108.529,393.152 107.674 C 393.535 107.479,394.142 107.053,394.501 106.729 C 394.887 106.380,395.235 106.189,395.353 106.262 C 395.479 106.340,395.508 106.314,395.430 106.189 C 395.363 106.080,395.492 105.777,395.722 105.503 C 395.949 105.234,396.269 104.654,396.433 104.215 C 396.598 103.776,396.774 103.379,396.825 103.333 C 396.959 103.211,397.002 102.742,397.016 101.250 C 397.042 98.436,395.514 96.114,392.689 94.677 C 391.243 93.941,391.170 93.939,369.708 93.884 L 349.167 93.831 349.167 101.165 " stroke="none" fill="#634c4c" fill-rule="evenodd"></path><path id="path1" d="M16.055 6.625 C 22.089 6.649,31.914 6.649,37.888 6.625 C 43.862 6.601,38.925 6.581,26.917 6.581 C 14.908 6.581,10.020 6.601,16.055 6.625 M69.125 6.625 C 75.106 6.649,84.894 6.649,90.875 6.625 C 96.856 6.601,91.962 6.581,80.000 6.581 C 68.037 6.581,63.144 6.601,69.125 6.625 M121.958 6.625 C 127.940 6.649,137.727 6.649,143.708 6.625 C 149.690 6.601,144.796 6.581,132.833 6.581 C 120.871 6.581,115.977 6.601,121.958 6.625 M168.554 6.625 C 171.287 6.651,175.712 6.651,178.387 6.625 C 181.062 6.599,178.825 6.578,173.417 6.578 C 168.008 6.578,165.820 6.599,168.554 6.625 M203.029 6.625 C 208.957 6.649,218.707 6.649,224.695 6.625 C 230.684 6.601,225.833 6.581,213.917 6.581 C 202.000 6.581,197.100 6.601,203.029 6.625 M256.388 6.625 C 262.422 6.649,272.247 6.649,278.221 6.625 C 284.195 6.601,279.258 6.581,267.250 6.581 C 255.242 6.581,250.354 6.601,256.388 6.625 M309.029 6.625 C 314.957 6.649,324.707 6.649,330.695 6.625 C 336.684 6.601,331.833 6.581,319.917 6.581 C 308.000 6.581,303.100 6.601,309.029 6.625 M362.221 6.625 C 368.256 6.649,378.081 6.649,384.055 6.625 C 390.029 6.601,385.092 6.581,373.083 6.581 C 361.075 6.581,356.187 6.601,362.221 6.625 M104.111 8.944 C 103.957 9.099,103.971 51.962,104.125 52.058 C 104.194 52.100,104.250 42.392,104.250 30.484 C 104.250 18.576,104.244 8.833,104.236 8.833 C 104.228 8.833,104.172 8.883,104.111 8.944 M114.458 77.458 C 117.506 77.484,122.494 77.484,125.542 77.458 C 128.590 77.433,126.096 77.412,120.000 77.412 C 113.904 77.412,111.410 77.433,114.458 77.458 M50.874 96.457 L 50.833 108.498 38.458 108.542 L 26.083 108.586 38.464 108.626 C 48.244 108.658,50.861 108.623,50.923 108.458 C 50.967 108.344,50.983 102.888,50.959 96.333 L 50.914 84.417 50.874 96.457 M320.960 86.285 C 321.168 86.324,321.468 86.323,321.627 86.281 C 321.786 86.239,321.617 86.207,321.250 86.209 C 320.883 86.211,320.753 86.245,320.960 86.285 M339.128 86.287 C 339.428 86.325,339.878 86.324,340.128 86.286 C 340.378 86.248,340.133 86.217,339.583 86.218 C 339.033 86.219,338.828 86.250,339.128 86.287 M59.364 108.625 C 61.168 108.652,64.168 108.652,66.031 108.625 C 67.893 108.598,66.417 108.576,62.750 108.576 C 59.083 108.576,57.560 108.598,59.364 108.625 M74.132 108.624 C 74.708 108.656,75.608 108.656,76.132 108.623 C 76.655 108.590,76.183 108.563,75.083 108.564 C 73.983 108.564,73.555 108.591,74.132 108.624 M84.298 108.624 C 84.875 108.656,85.775 108.656,86.298 108.623 C 86.822 108.590,86.350 108.563,85.250 108.564 C 84.150 108.564,83.722 108.591,84.298 108.624 M93.958 108.625 C 95.815 108.652,98.852 108.652,100.708 108.625 C 102.565 108.598,101.046 108.576,97.333 108.576 C 93.621 108.576,92.102 108.598,93.958 108.625 M117.638 108.625 C 122.434 108.650,130.234 108.650,134.971 108.625 C 139.708 108.600,135.783 108.580,126.250 108.580 C 116.717 108.580,112.841 108.600,117.638 108.625 M200.029 108.625 C 205.682 108.649,214.982 108.649,220.695 108.625 C 226.409 108.601,221.783 108.581,210.417 108.581 C 199.050 108.581,194.375 108.601,200.029 108.625 M248.792 108.625 C 251.840 108.650,256.827 108.650,259.875 108.625 C 262.923 108.599,260.429 108.579,254.333 108.579 C 248.237 108.579,245.744 108.599,248.792 108.625 M274.458 108.625 C 277.506 108.650,282.494 108.650,285.542 108.625 C 288.590 108.599,286.096 108.579,280.000 108.579 C 273.904 108.579,271.410 108.599,274.458 108.625 M359.375 108.625 C 365.035 108.649,374.298 108.649,379.958 108.625 C 385.619 108.601,380.988 108.581,369.667 108.581 C 358.346 108.581,353.715 108.601,359.375 108.625 " stroke="none" fill="#847474" fill-rule="evenodd"></path><path id="path2" d="M3.373 7.266 L 2.750 7.865 3.458 7.321 C 3.848 7.022,4.167 6.753,4.167 6.722 C 4.167 6.566,3.936 6.724,3.373 7.266 M49.882 7.106 C 50.138 7.368,50.458 7.733,50.593 7.917 C 50.822 8.227,50.826 8.220,50.651 7.809 C 50.547 7.567,50.227 7.202,49.940 6.998 L 49.417 6.628 49.882 7.106 M162.129 6.957 C 161.879 7.112,161.631 7.352,161.578 7.491 C 161.522 7.636,161.678 7.569,161.949 7.332 C 162.206 7.106,162.488 6.864,162.575 6.794 C 162.849 6.574,162.602 6.664,162.129 6.957 M190.491 7.291 L 189.917 7.916 190.500 7.418 C 190.821 7.144,191.155 6.862,191.242 6.793 C 191.340 6.714,191.337 6.667,191.233 6.667 C 191.141 6.667,190.807 6.948,190.491 7.291 M236.850 7.057 C 237.162 7.272,237.446 7.424,237.482 7.395 C 237.595 7.303,236.761 6.678,236.517 6.672 C 236.389 6.669,236.539 6.842,236.850 7.057 M243.827 7.150 C 243.510 7.416,243.287 7.664,243.333 7.701 C 243.379 7.738,243.679 7.521,244.000 7.219 C 244.721 6.540,244.609 6.495,243.827 7.150 M289.681 6.721 C 289.719 6.750,290.012 6.945,290.333 7.153 L 290.917 7.531 290.449 7.099 C 290.192 6.861,289.898 6.667,289.796 6.667 C 289.694 6.667,289.642 6.691,289.681 6.721 M296.450 7.299 C 296.111 7.646,295.834 8.040,295.834 8.174 C 295.834 8.307,295.976 8.185,296.148 7.902 C 296.321 7.619,296.668 7.225,296.920 7.027 C 297.172 6.829,297.308 6.667,297.223 6.667 C 297.138 6.667,296.790 6.951,296.450 7.299 M342.800 6.982 C 343.011 7.166,343.334 7.489,343.518 7.700 L 343.853 8.083 343.582 7.637 C 343.432 7.391,343.109 7.068,342.863 6.918 L 342.417 6.647 342.800 6.982 M396.333 7.269 C 396.700 7.601,397.009 8.032,397.019 8.228 C 397.036 8.536,397.049 8.542,397.118 8.273 C 397.195 7.977,396.119 6.667,395.799 6.667 C 395.726 6.667,395.966 6.938,396.333 7.269 M349.762 7.095 C 349.585 7.224,349.473 7.362,349.512 7.401 C 349.552 7.441,349.728 7.367,349.905 7.238 C 350.081 7.109,350.194 6.971,350.154 6.932 C 350.115 6.893,349.938 6.966,349.762 7.095 M56.216 7.744 C 56.017 8.049,55.896 8.340,55.948 8.392 C 56.000 8.444,56.182 8.214,56.352 7.880 C 56.749 7.101,56.682 7.034,56.216 7.744 M103.484 7.471 C 103.586 7.660,103.751 7.865,103.851 7.927 C 103.982 8.008,103.981 7.943,103.849 7.696 C 103.748 7.507,103.583 7.301,103.482 7.239 C 103.352 7.158,103.352 7.224,103.484 7.471 M161.248 30.583 C 161.248 42.775,161.267 47.738,161.292 41.612 C 161.316 35.486,161.316 25.511,161.292 19.445 C 161.267 13.380,161.248 18.392,161.248 30.583 M185.748 30.583 C 185.748 42.775,185.767 47.738,185.792 41.612 C 185.816 35.486,185.816 25.511,185.792 19.445 C 185.767 13.380,185.748 18.392,185.748 30.583 M55.914 30.583 C 55.914 42.683,55.934 47.609,55.958 41.529 C 55.983 35.449,55.983 25.549,55.958 19.529 C 55.934 13.509,55.914 18.483,55.914 30.583 M108.748 30.583 C 108.748 42.683,108.767 47.609,108.792 41.529 C 108.816 35.449,108.816 25.549,108.792 19.529 C 108.767 13.509,108.748 18.483,108.748 30.583 M295.748 30.583 C 295.748 42.683,295.767 47.609,295.792 41.529 C 295.816 35.449,295.816 25.549,295.792 19.529 C 295.767 13.509,295.748 18.483,295.748 30.583 M397.248 30.583 C 397.248 42.683,397.267 47.609,397.292 41.529 C 397.316 35.449,397.316 25.549,397.292 19.529 C 397.267 13.509,397.248 18.483,397.248 30.583 M189.748 30.417 C 189.748 42.333,189.767 47.184,189.792 41.195 C 189.816 35.207,189.816 25.457,189.792 19.529 C 189.767 13.600,189.748 18.500,189.748 30.417 M243.081 30.500 C 243.081 42.462,243.101 47.356,243.125 41.375 C 243.149 35.394,243.149 25.606,243.125 19.625 C 243.101 13.644,243.081 18.537,243.081 30.500 M2.581 30.500 C 2.581 42.371,2.601 47.227,2.625 41.292 C 2.649 35.356,2.649 25.644,2.625 19.708 C 2.601 13.773,2.581 18.629,2.581 30.500 M291.036 52.881 C 290.922 53.195,290.680 53.587,290.498 53.752 C 290.108 54.105,290.045 54.475,290.429 54.157 C 290.759 53.883,291.371 52.697,291.297 52.476 C 291.267 52.384,291.149 52.567,291.036 52.881 M50.751 52.832 C 50.688 53.028,50.403 53.465,50.116 53.803 C 49.628 54.379,49.624 54.391,50.064 54.000 C 50.552 53.565,51.083 52.694,50.944 52.555 C 50.900 52.511,50.813 52.635,50.751 52.832 M189.918 52.917 C 189.974 53.192,190.257 53.642,190.547 53.917 C 190.882 54.235,190.942 54.265,190.712 53.999 C 190.514 53.769,190.231 53.319,190.084 52.999 C 189.827 52.438,189.821 52.435,189.918 52.917 M56.000 52.728 C 56.000 52.982,56.477 53.966,56.653 54.075 C 56.756 54.139,56.676 53.867,56.475 53.470 C 56.063 52.660,56.000 52.561,56.000 52.728 M156.579 53.196 C 156.515 53.409,156.302 53.770,156.106 53.999 L 155.750 54.414 156.144 54.082 C 156.531 53.756,156.913 53.024,156.770 52.881 C 156.730 52.841,156.644 52.983,156.579 53.196 M185.101 53.560 C 184.716 54.111,184.694 54.183,184.992 53.919 C 185.370 53.582,185.739 53.013,185.639 52.921 C 185.608 52.893,185.366 53.181,185.101 53.560 M295.839 53.125 C 295.848 53.327,296.501 54.055,296.592 53.964 C 296.637 53.918,296.560 53.786,296.421 53.670 C 296.281 53.554,296.167 53.356,296.167 53.230 C 296.167 53.103,296.092 53.000,296.000 53.000 C 295.908 53.000,295.836 53.056,295.839 53.125 M343.181 53.816 C 342.867 54.238,342.740 54.477,342.897 54.348 C 343.238 54.067,343.895 53.168,343.810 53.098 C 343.777 53.071,343.494 53.394,343.181 53.816 M3.144 53.620 C 3.513 54.152,3.809 54.420,3.906 54.308 C 3.933 54.276,3.690 53.987,3.364 53.667 L 2.772 53.083 3.144 53.620 M349.312 53.460 C 349.398 53.622,349.640 53.903,349.849 54.085 C 350.160 54.357,350.144 54.304,349.761 53.792 C 349.267 53.130,349.050 52.970,349.312 53.460 M161.500 53.661 C 161.500 53.749,161.669 53.910,161.875 54.018 C 162.248 54.214,162.248 54.213,161.933 53.858 C 161.580 53.460,161.500 53.424,161.500 53.661 M237.154 53.939 C 236.769 54.357,236.767 54.367,237.122 54.150 C 237.326 54.026,237.530 53.828,237.575 53.712 C 237.694 53.401,237.605 53.449,237.154 53.939 M110.074 54.407 C 110.251 54.550,110.514 54.661,110.657 54.654 C 110.881 54.642,110.883 54.628,110.667 54.548 C 110.529 54.497,110.267 54.386,110.083 54.302 C 109.755 54.151,109.755 54.152,110.074 54.407 M395.583 54.423 C 395.165 54.624,395.151 54.647,395.500 54.563 C 395.729 54.508,395.988 54.396,396.075 54.315 C 396.291 54.113,396.172 54.139,395.583 54.423 M16.055 54.792 C 22.089 54.816,31.914 54.816,37.888 54.792 C 43.862 54.767,38.925 54.748,26.917 54.748 C 14.908 54.748,10.020 54.767,16.055 54.792 M69.125 54.792 C 75.106 54.816,84.894 54.816,90.875 54.792 C 96.856 54.767,91.962 54.748,80.000 54.748 C 68.037 54.748,63.144 54.767,69.125 54.792 M122.055 54.792 C 128.089 54.816,137.914 54.816,143.888 54.792 C 149.862 54.767,144.925 54.748,132.917 54.748 C 120.908 54.748,116.020 54.767,122.055 54.792 M168.470 54.792 C 171.250 54.817,175.750 54.817,178.470 54.792 C 181.191 54.766,178.917 54.745,173.417 54.745 C 167.917 54.745,165.691 54.766,168.470 54.792 M203.055 54.792 C 209.089 54.816,218.914 54.816,224.888 54.792 C 230.862 54.767,225.925 54.748,213.917 54.748 C 201.908 54.748,197.020 54.767,203.055 54.792 M256.388 54.792 C 262.422 54.816,272.247 54.816,278.221 54.792 C 284.195 54.767,279.258 54.748,267.250 54.748 C 255.242 54.748,250.354 54.767,256.388 54.792 M309.055 54.792 C 315.089 54.816,324.914 54.816,330.888 54.792 C 336.862 54.767,331.925 54.748,319.917 54.748 C 307.908 54.748,303.020 54.767,309.055 54.792 M362.125 54.792 C 368.106 54.816,377.894 54.816,383.875 54.792 C 389.856 54.767,384.962 54.748,373.000 54.748 C 361.037 54.748,356.144 54.767,362.125 54.792 M172.958 60.284 C 173.165 60.324,173.502 60.324,173.708 60.284 C 173.915 60.245,173.746 60.212,173.333 60.212 C 172.921 60.212,172.752 60.245,172.958 60.284 M24.794 60.451 C 25.001 60.491,25.301 60.490,25.460 60.448 C 25.620 60.406,25.450 60.374,25.083 60.375 C 24.717 60.377,24.586 60.411,24.794 60.451 M28.460 60.451 C 28.668 60.491,28.968 60.490,29.127 60.448 C 29.286 60.406,29.117 60.374,28.750 60.375 C 28.383 60.377,28.253 60.411,28.460 60.451 M69.458 60.451 C 69.665 60.491,70.002 60.491,70.208 60.451 C 70.415 60.411,70.246 60.379,69.833 60.379 C 69.421 60.379,69.252 60.411,69.458 60.451 M90.377 60.453 C 90.631 60.491,91.006 60.490,91.211 60.451 C 91.416 60.411,91.208 60.380,90.750 60.381 C 90.292 60.382,90.124 60.415,90.377 60.453 M189.743 67.667 C 189.743 71.746,189.765 73.415,189.792 71.375 C 189.818 69.335,189.818 65.998,189.792 63.958 C 189.765 61.919,189.743 63.587,189.743 67.667 M266.625 60.454 C 266.923 60.491,267.410 60.491,267.708 60.454 C 268.006 60.417,267.762 60.387,267.167 60.387 C 266.571 60.387,266.327 60.417,266.625 60.454 M317.960 60.451 C 318.168 60.491,318.468 60.490,318.627 60.448 C 318.786 60.406,318.617 60.374,318.250 60.375 C 317.883 60.377,317.753 60.411,317.960 60.451 M321.294 60.451 C 321.501 60.491,321.801 60.490,321.960 60.448 C 322.120 60.406,321.950 60.374,321.583 60.375 C 321.217 60.377,321.086 60.411,321.294 60.451 M108.707 67.458 L 108.750 74.417 120.056 74.500 L 131.363 74.583 131.681 74.977 C 132.100 75.494,132.086 76.204,131.649 76.599 C 131.314 76.903,130.813 76.920,120.024 77.000 L 108.750 77.083 108.707 84.538 L 108.663 91.993 119.984 92.038 L 131.305 92.083 131.653 92.484 C 132.122 93.025,132.105 93.844,131.614 94.304 L 131.229 94.667 120.211 94.667 C 114.152 94.667,109.075 94.712,108.930 94.768 C 108.647 94.876,108.510 108.667,108.792 108.667 C 108.860 108.667,108.917 105.610,108.917 101.875 L 108.917 95.083 120.183 95.000 C 132.567 94.908,131.817 94.978,132.278 93.875 C 132.471 93.414,132.469 93.248,132.265 92.761 C 131.792 91.627,132.239 91.667,119.923 91.667 L 108.830 91.667 108.873 84.542 L 108.917 77.417 120.157 77.374 C 131.344 77.331,131.399 77.329,131.773 76.978 C 132.326 76.459,132.502 75.823,132.256 75.238 C 131.819 74.197,132.503 74.258,120.183 74.167 L 108.917 74.083 108.873 67.376 L 108.830 60.668 126.706 60.625 L 144.583 60.582 126.623 60.541 L 108.663 60.500 108.707 67.458 M264.542 60.615 C 264.702 60.657,264.965 60.657,265.125 60.615 C 265.285 60.573,265.154 60.539,264.833 60.539 C 264.512 60.539,264.381 60.573,264.542 60.615 M65.917 60.923 C 65.550 61.099,65.522 61.137,65.812 61.064 C 66.030 61.009,66.309 60.950,66.432 60.931 C 66.556 60.913,66.709 60.846,66.773 60.783 C 66.972 60.583,66.440 60.670,65.917 60.923 M392.347 60.720 C 392.622 60.933,394.000 61.664,394.000 61.597 C 394.000 61.490,392.598 60.667,392.416 60.667 C 392.340 60.667,392.309 60.691,392.347 60.720 M86.417 61.089 C 86.000 61.290,85.986 61.313,86.333 61.228 C 86.806 61.113,87.336 60.842,87.083 60.846 C 86.992 60.847,86.692 60.957,86.417 61.089 M261.750 61.000 C 261.540 61.090,261.509 61.143,261.667 61.143 C 261.804 61.143,262.067 61.079,262.250 61.000 C 262.460 60.910,262.491 60.857,262.333 60.857 C 262.196 60.857,261.933 60.921,261.750 61.000 M95.258 61.302 C 95.474 61.486,96.333 61.845,96.333 61.751 C 96.333 61.659,95.400 61.167,95.225 61.167 C 95.156 61.167,95.171 61.227,95.258 61.302 M312.875 61.277 C 312.760 61.323,312.667 61.439,312.667 61.534 C 312.667 61.648,312.744 61.644,312.890 61.522 C 313.013 61.420,313.163 61.386,313.224 61.446 C 313.284 61.506,313.333 61.468,313.333 61.361 C 313.333 61.157,313.222 61.137,312.875 61.277 M63.626 61.796 C 63.191 62.046,62.834 62.305,62.834 62.372 C 62.834 62.439,63.077 62.346,63.375 62.165 C 63.673 61.985,64.085 61.763,64.292 61.673 C 64.656 61.513,64.794 61.328,64.542 61.338 C 64.473 61.341,64.061 61.547,63.626 61.796 M74.500 61.399 C 74.500 61.507,75.892 62.163,75.965 62.090 C 76.002 62.053,75.728 61.868,75.356 61.678 C 74.681 61.334,74.500 61.275,74.500 61.399 M149.000 61.846 C 149.000 61.936,149.131 62.060,149.292 62.120 C 149.452 62.180,149.945 62.442,150.386 62.701 C 150.828 62.959,151.148 63.105,151.098 63.024 C 150.937 62.763,149.000 61.675,149.000 61.846 M258.738 61.913 C 258.561 62.047,258.492 62.157,258.583 62.159 C 258.831 62.163,259.254 61.865,259.150 61.761 C 259.100 61.711,258.914 61.779,258.738 61.913 M96.583 62.000 C 96.640 62.092,96.770 62.167,96.872 62.167 C 96.974 62.167,97.194 62.291,97.362 62.442 C 97.537 62.601,97.667 62.638,97.667 62.530 C 97.667 62.427,97.445 62.227,97.175 62.088 C 96.603 61.792,96.440 61.768,96.583 62.000 M36.240 62.407 C 36.418 62.550,36.681 62.661,36.824 62.654 C 37.048 62.642,37.049 62.628,36.833 62.548 C 36.696 62.497,36.433 62.386,36.250 62.302 C 35.922 62.151,35.922 62.152,36.240 62.407 M83.141 62.744 C 82.714 63.057,82.308 63.406,82.238 63.519 C 82.169 63.632,82.453 63.467,82.871 63.154 C 83.289 62.840,83.770 62.494,83.940 62.385 C 84.111 62.276,84.175 62.184,84.083 62.181 C 83.992 62.177,83.568 62.431,83.141 62.744 M166.398 62.681 C 165.588 63.324,165.578 63.334,165.764 63.331 C 165.937 63.328,167.306 62.183,167.148 62.173 C 167.092 62.169,166.754 62.398,166.398 62.681 M180.000 62.341 C 180.578 62.734,180.907 62.848,180.500 62.515 C 180.271 62.327,180.008 62.174,179.917 62.173 C 179.825 62.172,179.862 62.248,180.000 62.341 M257.833 62.361 C 257.833 62.438,257.688 62.500,257.510 62.500 C 257.332 62.500,257.143 62.570,257.090 62.656 C 257.030 62.753,257.197 62.754,257.527 62.659 C 258.134 62.485,258.472 62.222,258.089 62.222 C 257.948 62.222,257.833 62.285,257.833 62.361 M309.371 62.780 C 308.704 63.110,308.185 63.407,308.217 63.439 C 308.288 63.511,310.667 62.350,310.667 62.243 C 310.667 62.135,310.706 62.119,309.371 62.780 M15.897 63.016 C 15.174 63.392,14.508 63.777,14.417 63.873 C 14.325 63.969,14.831 63.737,15.541 63.357 C 16.251 62.977,16.940 62.667,17.073 62.667 C 17.205 62.667,17.360 62.592,17.417 62.500 C 17.604 62.197,17.225 62.325,15.897 63.016 M235.955 62.833 C 236.112 63.017,236.311 63.167,236.396 63.167 C 236.482 63.167,236.416 63.017,236.250 62.833 C 236.084 62.650,235.886 62.500,235.809 62.500 C 235.733 62.500,235.798 62.650,235.955 62.833 M277.321 62.794 C 277.755 63.105,278.667 63.527,278.667 63.417 C 278.667 63.381,278.273 63.161,277.792 62.928 C 277.310 62.695,277.099 62.635,277.321 62.794 M37.167 62.732 C 37.167 62.784,37.467 62.970,37.833 63.148 C 38.200 63.325,38.500 63.409,38.500 63.335 C 38.500 63.260,38.256 63.103,37.958 62.985 C 37.660 62.868,37.360 62.742,37.292 62.705 C 37.223 62.669,37.167 62.681,37.167 62.732 M61.167 63.484 C 60.114 64.268,59.162 65.167,59.386 65.167 C 59.447 65.167,59.894 64.810,60.379 64.375 C 60.864 63.940,61.521 63.381,61.839 63.133 C 62.823 62.365,62.310 62.634,61.167 63.484 M255.900 63.264 C 255.451 63.501,255.008 63.772,254.917 63.866 C 254.825 63.960,255.219 63.796,255.792 63.502 C 256.696 63.037,256.995 62.833,256.775 62.833 C 256.743 62.833,256.349 63.027,255.900 63.264 M98.592 63.127 C 98.679 63.198,98.956 63.436,99.208 63.657 C 99.460 63.877,99.667 64.011,99.667 63.952 C 99.667 63.791,98.775 63.000,98.593 63.000 C 98.493 63.000,98.492 63.047,98.592 63.127 M181.667 63.583 C 181.978 63.904,182.270 64.167,182.315 64.167 C 182.361 64.167,182.144 63.904,181.833 63.583 C 181.522 63.262,181.230 63.000,181.185 63.000 C 181.139 63.000,181.356 63.262,181.667 63.583 M279.088 63.724 C 279.920 64.293,280.333 64.531,280.333 64.442 C 280.333 64.307,279.126 63.500,278.924 63.500 C 278.833 63.500,278.907 63.601,279.088 63.724 M307.167 64.008 C 306.754 64.275,306.474 64.495,306.545 64.497 C 306.710 64.501,308.000 63.689,308.000 63.581 C 308.000 63.467,308.001 63.467,307.167 64.008 M78.500 63.692 C 78.500 63.740,78.810 64.105,79.189 64.503 C 79.567 64.901,79.799 65.082,79.703 64.905 C 79.521 64.569,78.500 63.539,78.500 63.692 M81.477 63.986 C 81.260 64.161,81.127 64.348,81.180 64.402 C 81.233 64.455,81.452 64.311,81.667 64.083 C 82.131 63.589,82.030 63.537,81.477 63.986 M152.833 64.583 C 153.144 64.904,153.436 65.167,153.482 65.167 C 153.528 65.167,153.311 64.904,153.000 64.583 C 152.689 64.262,152.397 64.000,152.351 64.000 C 152.305 64.000,152.522 64.262,152.833 64.583 M13.333 64.466 C 12.785 64.837,12.442 65.168,12.613 65.162 C 12.688 65.160,13.012 64.937,13.333 64.667 C 13.978 64.124,13.978 64.030,13.333 64.466 M39.834 64.290 C 39.836 64.425,40.844 65.044,40.927 64.962 C 40.954 64.935,40.719 64.744,40.405 64.538 C 40.090 64.332,39.834 64.221,39.834 64.290 M253.743 64.585 C 253.472 64.807,253.325 64.988,253.417 64.988 C 253.628 64.989,254.405 64.349,254.309 64.253 C 254.269 64.214,254.015 64.363,253.743 64.585 M164.167 64.831 C 163.475 65.593,163.338 65.846,163.915 65.297 C 164.274 64.957,164.533 64.650,164.492 64.617 C 164.450 64.583,164.304 64.679,164.167 64.831 M305.583 64.977 C 305.308 65.147,304.935 65.465,304.753 65.684 C 304.454 66.045,304.470 66.041,304.919 65.645 C 305.193 65.404,305.642 65.088,305.917 64.943 C 306.192 64.798,306.342 64.677,306.250 64.674 C 306.158 64.671,305.858 64.807,305.583 64.977 M80.240 65.070 C 80.063 65.200,79.961 65.350,80.015 65.404 C 80.069 65.458,80.249 65.352,80.416 65.168 C 80.770 64.776,80.697 64.736,80.240 65.070 M183.257 65.349 C 183.874 66.367,184.333 67.044,184.333 66.937 C 184.333 66.736,183.488 65.346,183.292 65.224 C 183.177 65.154,183.165 65.198,183.257 65.349 M334.750 65.440 C 335.599 66.193,335.911 66.413,335.584 66.026 C 335.402 65.811,335.103 65.559,334.919 65.464 C 334.734 65.370,334.658 65.359,334.750 65.440 M11.451 65.838 C 11.296 66.019,11.235 66.167,11.315 66.167 C 11.498 66.167,11.906 65.684,11.807 65.584 C 11.766 65.543,11.606 65.658,11.451 65.838 M101.671 66.386 C 101.870 66.724,102.112 67.049,102.207 67.109 C 102.436 67.250,101.815 66.196,101.529 65.956 C 101.408 65.855,101.471 66.048,101.671 66.386 M42.821 66.395 C 43.272 66.884,43.361 66.932,43.242 66.621 C 43.197 66.505,42.993 66.308,42.788 66.183 C 42.434 65.967,42.435 65.976,42.821 66.395 M58.416 66.334 C 58.249 66.518,58.153 66.708,58.201 66.756 C 58.249 66.804,58.413 66.654,58.565 66.422 C 58.897 65.915,58.831 65.876,58.416 66.334 M251.409 66.225 C 251.030 66.643,250.978 66.894,251.343 66.546 C 251.557 66.343,251.698 66.144,251.657 66.105 C 251.617 66.066,251.505 66.120,251.409 66.225 M303.833 66.417 C 303.618 66.646,303.518 66.833,303.612 66.833 C 303.825 66.833,304.416 66.194,304.305 66.083 C 304.260 66.038,304.048 66.189,303.833 66.417 M9.667 67.513 C 8.183 69.097,8.195 69.140,9.713 67.671 C 10.421 66.986,11.000 66.404,11.000 66.379 C 11.000 66.179,10.593 66.525,9.667 67.513 M336.261 66.832 C 336.784 67.507,337.902 68.613,337.693 68.250 C 337.588 68.067,337.150 67.579,336.720 67.167 C 336.290 66.754,336.084 66.604,336.261 66.832 M284.083 67.531 C 284.542 68.041,284.946 68.431,284.982 68.400 C 285.068 68.323,283.845 66.959,283.512 66.761 C 283.368 66.676,283.625 67.022,284.083 67.531 M397.217 67.667 C 397.217 68.171,397.248 68.377,397.286 68.125 C 397.324 67.873,397.324 67.460,397.286 67.208 C 397.248 66.956,397.217 67.162,397.217 67.667 M302.573 67.708 L 302.083 68.250 302.625 67.760 C 303.130 67.304,303.243 67.167,303.115 67.167 C 303.086 67.167,302.842 67.410,302.573 67.708 M184.669 68.010 C 184.673 68.346,184.940 68.732,185.048 68.558 C 185.097 68.478,185.031 68.268,184.902 68.091 C 184.736 67.864,184.667 67.840,184.669 68.010 M44.333 68.052 C 44.333 68.081,44.577 68.325,44.875 68.594 L 45.417 69.083 44.927 68.542 C 44.471 68.037,44.333 67.923,44.333 68.052 M301.567 68.691 C 301.252 69.047,301.252 69.047,301.625 68.852 C 301.831 68.743,302.000 68.583,302.000 68.494 C 302.000 68.257,301.920 68.294,301.567 68.691 M45.853 69.833 C 46.148 70.200,46.460 70.500,46.547 70.500 C 46.730 70.500,45.651 69.202,45.450 69.181 C 45.377 69.173,45.559 69.467,45.853 69.833 M338.754 69.658 C 338.935 69.883,339.238 70.220,339.427 70.408 C 339.758 70.737,340.728 72.300,341.138 73.167 L 341.335 73.583 341.235 73.167 C 341.057 72.429,339.882 70.603,339.143 69.917 C 338.748 69.550,338.573 69.434,338.754 69.658 M247.624 70.420 C 247.224 70.851,246.594 71.833,246.717 71.833 C 246.754 71.833,247.094 71.421,247.471 70.917 C 248.200 69.942,248.266 69.728,247.624 70.420 M6.700 71.125 C 6.319 71.667,5.796 72.667,5.893 72.667 C 5.930 72.667,6.229 72.217,6.557 71.667 C 7.179 70.623,7.254 70.337,6.700 71.125 M103.857 71.000 C 103.857 71.137,103.921 71.400,104.000 71.583 C 104.090 71.793,104.143 71.824,104.143 71.667 C 104.143 71.529,104.079 71.267,104.000 71.083 C 103.910 70.873,103.857 70.842,103.857 71.000 M161.413 84.667 C 161.413 92.138,161.433 95.194,161.458 91.458 C 161.483 87.723,161.483 81.610,161.458 77.875 C 161.433 74.140,161.413 77.196,161.413 84.667 M156.879 73.333 C 156.879 73.746,156.911 73.915,156.951 73.708 C 156.991 73.502,156.991 73.165,156.951 72.958 C 156.911 72.752,156.879 72.921,156.879 73.333 M288.336 73.083 C 288.336 73.175,288.485 73.475,288.667 73.750 C 288.849 74.025,288.998 74.175,288.998 74.083 C 288.998 73.992,288.849 73.692,288.667 73.417 C 288.485 73.142,288.336 72.992,288.336 73.083 M104.247 91.083 C 104.247 100.800,104.267 104.799,104.292 99.971 C 104.316 95.143,104.316 87.193,104.292 82.304 C 104.267 77.416,104.247 81.367,104.247 91.083 M245.439 74.042 L 245.139 74.583 245.482 74.167 C 245.787 73.797,245.922 73.500,245.786 73.500 C 245.760 73.500,245.604 73.744,245.439 74.042 M56.080 91.167 C 56.080 100.837,56.100 104.794,56.125 99.958 C 56.150 95.123,56.150 87.210,56.125 82.375 C 56.100 77.540,56.080 81.496,56.080 91.167 M4.917 74.333 C 4.774 74.608,4.696 74.833,4.741 74.833 C 4.787 74.833,4.941 74.608,5.083 74.333 C 5.226 74.058,5.304 73.833,5.259 73.833 C 5.213 73.833,5.059 74.058,4.917 74.333 M393.083 74.347 C 392.625 74.610,392.309 74.827,392.382 74.829 C 392.596 74.836,393.802 74.186,393.915 74.002 C 394.046 73.790,394.076 73.778,393.083 74.347 M156.875 75.083 C 156.877 75.450,156.911 75.580,156.951 75.373 C 156.991 75.166,156.990 74.866,156.948 74.706 C 156.906 74.547,156.874 74.717,156.875 75.083 M4.500 75.063 C 4.500 75.098,4.386 75.398,4.248 75.730 C 4.100 76.083,4.066 76.333,4.164 76.333 C 4.257 76.333,4.333 76.200,4.333 76.037 C 4.333 75.874,4.450 75.574,4.593 75.370 C 4.738 75.163,4.775 75.000,4.676 75.000 C 4.579 75.000,4.500 75.028,4.500 75.063 M297.324 75.774 C 297.232 76.016,297.110 76.290,297.053 76.383 C 296.995 76.476,297.028 76.503,297.125 76.443 C 297.308 76.329,297.708 75.333,297.571 75.333 C 297.527 75.333,297.416 75.532,297.324 75.774 M49.512 76.417 C 49.512 76.508,49.619 76.771,49.750 77.000 C 49.881 77.229,49.988 77.342,49.988 77.250 C 49.988 77.158,49.881 76.896,49.750 76.667 C 49.619 76.438,49.512 76.325,49.512 76.417 M390.667 77.167 C 390.667 77.258,390.779 77.333,390.917 77.333 C 391.054 77.333,391.167 77.258,391.167 77.167 C 391.167 77.075,391.054 77.000,390.917 77.000 C 390.779 77.000,390.667 77.075,390.667 77.167 M189.743 84.500 C 189.743 88.579,189.765 90.248,189.792 88.208 C 189.818 86.169,189.818 82.831,189.792 80.792 C 189.765 78.752,189.743 80.421,189.743 84.500 M232.644 77.423 C 232.953 77.557,233.253 77.664,233.311 77.661 C 233.528 77.649,232.574 77.179,232.333 77.179 C 232.196 77.179,232.336 77.289,232.644 77.423 M342.929 77.667 C 342.990 77.896,343.110 78.196,343.195 78.333 C 343.302 78.507,343.315 78.456,343.238 78.167 C 343.176 77.938,343.057 77.637,342.972 77.500 C 342.865 77.326,342.851 77.377,342.929 77.667 M392.417 77.667 C 392.473 77.758,392.598 77.833,392.694 77.833 C 392.790 77.833,393.207 78.062,393.621 78.341 C 394.035 78.620,394.406 78.816,394.446 78.776 C 394.529 78.693,392.666 77.500,392.454 77.500 C 392.377 77.500,392.360 77.575,392.417 77.667 M233.750 77.864 C 233.933 77.967,234.290 78.195,234.542 78.370 C 234.794 78.546,235.000 78.649,235.000 78.601 C 235.000 78.467,233.781 77.666,233.586 77.672 C 233.493 77.675,233.567 77.761,233.750 77.864 M235.739 79.289 C 236.100 79.677,236.431 79.958,236.475 79.914 C 236.519 79.869,236.523 79.815,236.484 79.792 C 236.445 79.769,236.114 79.488,235.748 79.167 L 235.083 78.584 235.739 79.289 M395.834 80.354 C 396.200 80.817,396.500 81.277,396.500 81.376 C 396.500 81.475,396.548 81.507,396.607 81.449 C 396.736 81.319,395.669 79.714,395.375 79.595 C 395.261 79.549,395.467 79.890,395.834 80.354 M155.383 80.538 C 155.005 81.026,154.982 81.224,155.343 80.880 C 155.557 80.676,155.690 80.468,155.639 80.417 C 155.589 80.367,155.473 80.421,155.383 80.538 M236.893 80.616 C 237.063 80.817,237.378 81.455,237.592 82.033 C 237.807 82.611,237.987 82.992,237.991 82.881 C 238.010 82.438,237.304 80.860,236.955 80.564 L 236.583 80.250 236.893 80.616 M295.833 81.000 C 295.833 81.311,295.878 81.356,296.033 81.200 C 296.189 81.044,296.189 80.956,296.033 80.800 C 295.878 80.644,295.833 80.689,295.833 81.000 M2.705 82.500 C 2.705 82.821,2.740 82.952,2.782 82.792 C 2.823 82.631,2.823 82.369,2.782 82.208 C 2.740 82.048,2.705 82.179,2.705 82.500 M343.833 82.667 C 343.833 82.776,339.402 82.834,330.875 82.834 C 322.639 82.835,317.695 82.897,317.309 83.004 C 315.922 83.389,315.622 85.174,316.824 85.885 C 317.262 86.143,318.410 86.167,330.567 86.167 C 340.774 86.167,343.833 86.213,343.833 86.367 C 343.833 86.514,343.883 86.517,344.019 86.381 C 344.543 85.857,343.964 85.833,330.624 85.833 L 317.268 85.833 316.801 85.385 C 316.193 84.803,316.211 84.486,316.895 83.762 L 317.456 83.167 330.811 83.167 C 344.056 83.167,344.167 83.164,344.167 82.833 C 344.167 82.650,344.092 82.500,344.000 82.500 C 343.908 82.500,343.833 82.575,343.833 82.667 M50.879 83.333 C 50.879 83.746,50.911 83.915,50.951 83.708 C 50.991 83.502,50.991 83.165,50.951 82.958 C 50.911 82.752,50.879 82.921,50.879 83.333 M243.039 95.625 C 243.018 102.798,243.056 108.667,243.125 108.667 C 243.238 108.667,243.237 99.424,243.122 87.250 C 243.098 84.683,243.060 88.452,243.039 95.625 M153.500 83.220 C 153.130 83.529,152.258 84.500,152.351 84.500 C 152.395 84.500,152.762 84.162,153.167 83.750 C 153.870 83.034,154.033 82.774,153.500 83.220 M291.127 95.917 C 291.103 102.929,291.140 108.667,291.208 108.667 C 291.277 108.667,291.333 102.929,291.333 95.917 C 291.333 88.904,291.297 83.167,291.252 83.167 C 291.207 83.167,291.151 88.904,291.127 95.917 M295.725 84.500 C 295.725 85.279,295.754 85.598,295.789 85.208 C 295.824 84.819,295.824 84.181,295.789 83.792 C 295.754 83.402,295.725 83.721,295.725 84.500 M397.217 84.500 C 397.217 85.004,397.248 85.210,397.286 84.958 C 397.324 84.706,397.324 84.294,397.286 84.042 C 397.248 83.790,397.217 83.996,397.217 84.500 M70.017 85.256 L 69.500 85.845 69.500 97.256 L 69.500 108.667 71.250 108.667 L 73.000 108.667 73.000 97.495 C 73.000 85.485,73.004 85.538,72.147 84.938 C 71.459 84.457,70.607 84.584,70.017 85.256 M87.733 85.233 L 87.167 85.800 87.167 97.233 L 87.167 108.667 88.833 108.667 L 90.500 108.667 90.500 97.272 L 90.500 85.878 90.131 85.397 C 89.386 84.428,88.593 84.373,87.733 85.233 M266.002 85.125 L 265.498 85.583 265.458 97.125 L 265.417 108.667 267.125 108.667 L 268.833 108.667 268.833 97.233 L 268.833 85.800 268.267 85.233 C 267.529 84.496,266.735 84.458,266.002 85.125 M72.183 85.518 L 72.667 86.035 72.667 97.184 L 72.667 108.333 71.250 108.333 L 69.833 108.333 69.839 97.125 C 69.844 86.696,69.865 85.892,70.136 85.568 C 70.744 84.840,71.533 84.821,72.183 85.518 M89.735 85.513 L 90.167 86.026 90.167 97.179 L 90.167 108.333 88.833 108.333 L 87.500 108.333 87.500 97.098 L 87.500 85.863 88.013 85.431 C 88.695 84.857,89.204 84.881,89.735 85.513 M267.719 85.194 C 268.511 85.615,268.489 85.284,268.495 97.125 L 268.500 108.333 267.083 108.333 L 265.667 108.333 265.667 97.143 L 265.667 85.953 266.165 85.476 C 266.700 84.965,267.140 84.885,267.719 85.194 M153.172 85.749 C 153.562 86.280,153.833 86.536,153.833 86.374 C 153.833 86.292,153.629 86.043,153.380 85.821 C 153.047 85.524,152.992 85.505,153.172 85.749 M2.709 86.583 C 2.711 86.950,2.745 87.080,2.785 86.873 C 2.824 86.666,2.823 86.366,2.781 86.206 C 2.739 86.047,2.707 86.217,2.709 86.583 M185.572 93.917 C 185.572 96.117,185.596 96.994,185.625 95.865 C 185.653 94.737,185.653 92.937,185.624 91.865 C 185.595 90.794,185.572 91.717,185.572 93.917 M235.068 90.433 C 234.744 90.721,234.699 90.807,234.930 90.692 C 235.261 90.526,235.793 90.000,235.630 90.000 C 235.587 90.000,235.334 90.195,235.068 90.433 M393.250 90.991 C 392.883 91.164,392.630 91.312,392.688 91.320 C 392.850 91.341,394.000 90.839,394.000 90.748 C 394.000 90.636,393.999 90.636,393.250 90.991 M233.833 91.083 C 233.604 91.214,233.492 91.322,233.583 91.322 C 233.675 91.322,233.938 91.214,234.167 91.083 C 234.396 90.952,234.508 90.845,234.417 90.845 C 234.325 90.845,234.063 90.952,233.833 91.083 M297.072 92.582 C 297.368 93.290,297.766 93.956,297.571 93.417 C 297.505 93.233,297.368 92.840,297.268 92.542 C 297.167 92.244,297.027 92.000,296.957 92.000 C 296.887 92.000,296.938 92.262,297.072 92.582 M156.879 94.333 C 156.879 94.746,156.911 94.915,156.951 94.708 C 156.991 94.502,156.991 94.165,156.951 93.958 C 156.911 93.752,156.879 93.921,156.879 94.333 M189.743 101.167 C 189.743 105.246,189.765 106.915,189.792 104.875 C 189.818 102.835,189.818 99.498,189.792 97.458 C 189.765 95.419,189.743 97.087,189.743 101.167 M232.160 94.087 C 232.569 94.215,232.929 94.293,232.960 94.262 C 233.045 94.177,231.990 93.832,231.683 93.844 C 231.537 93.851,231.751 93.960,232.160 94.087 M233.574 94.589 C 233.751 94.723,233.972 94.833,234.064 94.833 C 234.155 94.833,234.085 94.723,233.907 94.589 C 233.729 94.454,233.508 94.344,233.417 94.344 C 233.325 94.344,233.396 94.454,233.574 94.589 M298.167 95.083 C 298.167 95.265,298.990 96.667,299.097 96.667 C 299.143 96.667,298.977 96.310,298.727 95.875 C 298.190 94.937,298.167 94.904,298.167 95.083 M235.759 96.093 C 236.223 96.546,236.731 97.104,236.888 97.333 C 237.168 97.741,237.168 97.738,236.919 97.213 C 236.644 96.637,236.213 96.179,235.417 95.620 C 235.140 95.426,235.294 95.638,235.759 96.093 M156.872 96.000 C 156.872 96.321,156.906 96.452,156.948 96.292 C 156.990 96.131,156.990 95.869,156.948 95.708 C 156.906 95.548,156.872 95.679,156.872 96.000 M6.173 97.093 C 6.179 97.260,6.998 98.315,6.999 98.157 C 7.000 98.106,6.813 97.811,6.583 97.500 C 6.354 97.189,6.169 97.006,6.173 97.093 M299.854 98.000 C 300.118 98.565,301.040 99.849,301.123 99.766 C 301.159 99.729,300.941 99.365,300.636 98.957 C 300.332 98.549,299.988 98.073,299.872 97.899 C 299.693 97.633,299.690 97.648,299.854 98.000 M7.284 98.808 C 7.449 99.115,7.830 99.640,8.132 99.975 L 8.681 100.583 8.132 99.829 C 7.830 99.414,7.449 98.889,7.284 98.662 C 6.997 98.266,6.997 98.271,7.284 98.808 M339.372 98.667 C 339.258 98.850,339.221 99.000,339.292 99.000 C 339.362 99.000,339.513 98.850,339.628 98.667 C 339.742 98.483,339.779 98.333,339.708 98.333 C 339.638 98.333,339.487 98.483,339.372 98.667 M301.333 100.104 C 301.333 100.189,301.483 100.388,301.667 100.545 C 301.850 100.702,302.000 100.767,302.000 100.691 C 302.000 100.614,301.850 100.416,301.667 100.250 C 301.483 100.084,301.333 100.018,301.333 100.104 M336.417 101.898 C 335.408 102.906,334.808 103.559,335.083 103.350 C 336.031 102.630,338.692 99.974,338.408 100.032 C 338.321 100.050,337.425 100.890,336.417 101.898 M397.214 101.250 C 397.216 101.708,397.248 101.876,397.286 101.623 C 397.325 101.369,397.324 100.994,397.284 100.789 C 397.244 100.584,397.213 100.792,397.214 101.250 M8.925 100.972 C 9.012 101.049,9.496 101.475,10.000 101.918 L 10.917 102.725 10.000 101.786 C 9.496 101.269,9.012 100.843,8.925 100.840 C 8.825 100.836,8.825 100.885,8.925 100.972 M302.348 101.208 C 302.387 101.231,302.680 101.475,303.001 101.750 L 303.583 102.250 303.094 101.708 C 302.825 101.410,302.531 101.167,302.441 101.167 C 302.351 101.167,302.309 101.185,302.348 101.208 M184.215 101.958 C 184.156 102.119,183.933 102.531,183.718 102.875 C 183.504 103.219,183.367 103.500,183.412 103.500 C 183.516 103.500,184.235 102.355,184.382 101.958 C 184.441 101.798,184.452 101.667,184.406 101.667 C 184.360 101.667,184.274 101.798,184.215 101.958 M162.697 102.417 C 162.801 102.646,162.952 102.833,163.031 102.833 C 163.110 102.833,163.051 102.646,162.901 102.417 C 162.751 102.188,162.601 102.000,162.568 102.000 C 162.534 102.000,162.593 102.188,162.697 102.417 M154.362 102.937 C 154.148 103.267,154.051 103.488,154.145 103.430 C 154.409 103.267,155.041 102.333,154.886 102.335 C 154.811 102.337,154.575 102.607,154.362 102.937 M303.853 102.423 C 303.933 102.639,305.500 104.081,305.500 103.938 C 305.500 103.880,305.362 103.702,305.193 103.542 C 304.277 102.670,303.797 102.269,303.853 102.423 M163.485 103.583 C 163.578 103.767,163.923 104.217,164.252 104.583 C 164.582 104.950,164.775 105.100,164.682 104.917 C 164.589 104.733,164.244 104.283,163.914 103.917 C 163.585 103.550,163.392 103.400,163.485 103.583 M153.430 104.130 L 153.110 104.583 153.555 104.179 C 154.023 103.755,154.080 103.663,153.875 103.672 C 153.806 103.675,153.606 103.881,153.430 104.130 M333.023 104.681 C 332.807 104.856,332.694 104.998,332.773 104.995 C 332.977 104.987,333.573 104.518,333.488 104.433 C 333.449 104.394,333.240 104.506,333.023 104.681 M13.500 104.727 C 13.500 104.773,13.725 104.971,14.000 105.167 C 14.275 105.362,14.500 105.485,14.500 105.439 C 14.500 105.394,14.275 105.196,14.000 105.000 C 13.725 104.804,13.500 104.681,13.500 104.727 M152.242 105.343 C 152.071 105.531,151.478 105.988,150.924 106.359 C 149.897 107.045,149.868 107.094,150.746 106.661 C 151.226 106.425,152.852 105.009,152.651 105.003 C 152.596 105.001,152.412 105.154,152.242 105.343 M14.681 105.550 C 14.719 105.578,14.975 105.733,15.250 105.894 L 15.750 106.186 15.357 105.843 C 15.140 105.654,14.884 105.500,14.787 105.500 C 14.690 105.500,14.642 105.523,14.681 105.550 M330.750 106.014 C 329.811 106.553,329.848 106.676,330.798 106.173 C 331.594 105.753,331.961 105.501,331.750 105.520 C 331.658 105.529,331.208 105.751,330.750 106.014 M309.240 106.241 C 309.418 106.383,309.681 106.494,309.824 106.487 C 310.048 106.475,310.049 106.461,309.833 106.381 C 309.696 106.330,309.433 106.219,309.250 106.135 C 308.922 105.984,308.922 105.986,309.240 106.241 M166.417 106.578 C 166.692 106.804,166.987 106.991,167.074 106.994 C 167.161 106.997,166.977 106.813,166.667 106.583 C 165.940 106.047,165.765 106.044,166.417 106.578 M180.375 106.498 C 180.077 106.680,179.833 106.865,179.833 106.909 C 179.833 106.953,180.096 106.834,180.417 106.645 C 180.737 106.455,181.000 106.270,181.000 106.234 C 181.000 106.127,180.947 106.149,180.375 106.498 M17.333 106.750 C 17.563 106.881,17.825 106.988,17.917 106.988 C 18.008 106.988,17.896 106.881,17.667 106.750 C 17.438 106.619,17.175 106.512,17.083 106.512 C 16.992 106.512,17.104 106.619,17.333 106.750 M310.426 106.745 C 310.604 106.879,310.862 106.991,311.000 106.994 C 311.137 106.996,311.035 106.886,310.773 106.749 C 310.165 106.432,310.010 106.430,310.426 106.745 M329.000 106.750 C 328.771 106.881,328.658 106.988,328.750 106.988 C 328.842 106.988,329.104 106.881,329.333 106.750 C 329.563 106.619,329.675 106.512,329.583 106.512 C 329.492 106.512,329.229 106.619,329.000 106.750 M18.500 107.250 C 18.729 107.381,18.992 107.488,19.083 107.488 C 19.175 107.488,19.063 107.381,18.833 107.250 C 18.604 107.119,18.342 107.012,18.250 107.012 C 18.158 107.012,18.271 107.119,18.500 107.250 M311.833 107.250 C 312.063 107.381,312.325 107.488,312.417 107.488 C 312.508 107.488,312.396 107.381,312.167 107.250 C 311.938 107.119,311.675 107.012,311.583 107.012 C 311.492 107.012,311.604 107.119,311.833 107.250 M313.417 107.756 C 313.692 107.882,314.029 107.983,314.167 107.980 C 314.304 107.977,314.154 107.874,313.833 107.750 C 313.072 107.457,312.773 107.461,313.417 107.756 M392.500 108.083 C 392.271 108.214,392.158 108.322,392.250 108.322 C 392.342 108.322,392.604 108.214,392.833 108.083 C 393.063 107.952,393.175 107.845,393.083 107.845 C 392.992 107.845,392.729 107.952,392.500 108.083 M146.333 108.250 C 146.012 108.374,145.862 108.477,146.000 108.480 C 146.137 108.483,146.475 108.382,146.750 108.256 C 147.394 107.961,147.094 107.957,146.333 108.250 M176.583 108.256 C 176.308 108.382,176.196 108.486,176.333 108.487 C 176.471 108.487,176.771 108.381,177.000 108.250 C 177.527 107.949,177.245 107.953,176.583 108.256 M25.042 108.615 C 25.202 108.657,25.465 108.657,25.625 108.615 C 25.785 108.573,25.654 108.539,25.333 108.539 C 25.012 108.539,24.881 108.573,25.042 108.615 M143.958 108.618 C 144.165 108.657,144.502 108.657,144.708 108.618 C 144.915 108.578,144.746 108.545,144.333 108.545 C 143.921 108.545,143.752 108.578,143.958 108.618 " stroke="none" fill="#a39494" fill-rule="evenodd"></path><path id="path3" d="M156.608 8.500 C 156.739 9.219,156.834 9.354,156.831 8.819 C 156.829 8.598,156.754 8.304,156.664 8.167 C 156.549 7.991,156.532 8.090,156.608 8.500 M185.581 30.500 C 185.581 42.646,185.601 47.615,185.625 41.542 C 185.649 35.469,185.649 25.531,185.625 19.458 C 185.601 13.385,185.581 18.354,185.581 30.500 M108.914 30.500 C 108.914 42.554,108.934 47.485,108.958 41.458 C 108.983 35.431,108.983 25.569,108.958 19.542 C 108.934 13.515,108.914 18.446,108.914 30.500 M161.414 30.583 C 161.414 42.683,161.434 47.609,161.458 41.529 C 161.483 35.449,161.483 25.549,161.458 19.529 C 161.434 13.509,161.414 18.483,161.414 30.583 M295.914 30.583 C 295.914 42.592,295.934 47.480,295.958 41.445 C 295.983 35.411,295.983 25.586,295.958 19.612 C 295.934 13.638,295.914 18.575,295.914 30.583 M397.081 30.583 C 397.081 42.592,397.101 47.480,397.125 41.445 C 397.149 35.411,397.149 25.586,397.125 19.612 C 397.101 13.638,397.081 18.575,397.081 30.583 M104.248 30.500 C 104.248 42.371,104.267 47.227,104.292 41.292 C 104.316 35.356,104.316 25.644,104.292 19.708 C 104.267 13.773,104.248 18.629,104.248 30.500 M243.248 30.500 C 243.248 42.371,243.267 47.227,243.292 41.292 C 243.316 35.356,243.316 25.644,243.292 19.708 C 243.267 13.773,243.248 18.629,243.248 30.500 M238.081 30.583 C 238.081 42.408,238.101 47.270,238.125 41.388 C 238.149 35.505,238.149 25.830,238.125 19.888 C 238.101 13.945,238.081 18.758,238.081 30.583 M344.081 30.500 C 344.081 42.279,344.101 47.098,344.125 41.208 C 344.149 35.319,344.149 25.681,344.125 19.792 C 344.101 13.902,344.081 18.721,344.081 30.500 M156.744 18.583 C 156.744 23.625,156.766 25.712,156.792 23.220 C 156.817 20.729,156.817 16.604,156.792 14.053 C 156.766 11.503,156.744 13.542,156.744 18.583 M156.732 48.167 C 156.732 49.404,156.758 49.910,156.790 49.292 C 156.822 48.673,156.822 47.660,156.790 47.042 C 156.758 46.423,156.732 46.929,156.732 48.167 M156.712 52.000 C 156.712 52.413,156.745 52.581,156.784 52.375 C 156.824 52.169,156.824 51.831,156.784 51.625 C 156.745 51.419,156.712 51.587,156.712 52.000 M25.833 60.500 C 25.611 60.644,25.611 60.662,25.833 60.662 C 25.971 60.662,26.196 60.589,26.333 60.500 C 26.556 60.356,26.556 60.338,26.333 60.338 C 26.196 60.338,25.971 60.411,25.833 60.500 M27.667 60.500 C 27.804 60.589,28.029 60.662,28.167 60.662 C 28.389 60.662,28.389 60.644,28.167 60.500 C 28.029 60.411,27.804 60.338,27.667 60.338 C 27.444 60.338,27.444 60.356,27.667 60.500 M318.917 60.500 C 318.595 60.638,318.596 60.644,318.948 60.655 C 319.149 60.661,319.360 60.592,319.417 60.500 C 319.539 60.303,319.375 60.303,318.917 60.500 M89.167 60.667 C 88.823 60.777,88.809 60.803,89.083 60.814 C 89.267 60.822,89.529 60.756,89.667 60.667 C 89.959 60.478,89.756 60.478,89.167 60.667 M316.917 60.667 L 316.417 60.794 316.865 60.814 C 317.112 60.824,317.360 60.758,317.417 60.667 C 317.473 60.575,317.496 60.509,317.468 60.520 C 317.440 60.531,317.192 60.597,316.917 60.667 M322.476 60.709 C 322.560 60.793,322.806 60.834,323.022 60.800 C 323.356 60.747,323.333 60.724,322.870 60.647 C 322.539 60.592,322.383 60.616,322.476 60.709 M108.909 60.875 C 108.865 60.990,108.850 64.009,108.875 67.584 L 108.921 74.083 108.960 67.459 L 109.000 60.835 126.708 60.792 L 144.417 60.748 126.703 60.708 C 112.638 60.675,108.973 60.710,108.909 60.875 M264.708 60.782 C 264.869 60.823,265.131 60.823,265.292 60.782 C 265.452 60.740,265.321 60.705,265.000 60.705 C 264.679 60.705,264.548 60.740,264.708 60.782 M60.244 64.542 L 59.417 65.417 60.292 64.590 C 60.773 64.135,61.167 63.741,61.167 63.715 C 61.167 63.590,61.012 63.729,60.244 64.542 M81.573 64.208 L 81.083 64.750 81.625 64.260 C 82.130 63.804,82.243 63.667,82.115 63.667 C 82.086 63.667,81.842 63.910,81.573 64.208 M182.167 64.385 C 182.167 64.414,182.410 64.658,182.708 64.927 L 183.250 65.417 182.760 64.875 C 182.304 64.370,182.167 64.257,182.167 64.385 M164.073 65.208 L 163.583 65.750 164.125 65.260 C 164.423 64.991,164.667 64.748,164.667 64.719 C 164.667 64.590,164.529 64.703,164.073 65.208 M79.649 65.203 C 79.998 65.599,80.333 65.686,80.333 65.379 C 80.333 65.323,80.283 65.328,80.221 65.390 C 80.159 65.452,79.915 65.334,79.679 65.127 L 79.250 64.750 79.649 65.203 M9.494 67.958 L 8.583 68.917 9.542 68.006 C 10.069 67.505,10.500 67.073,10.500 67.047 C 10.500 66.924,10.341 67.068,9.494 67.958 M397.042 67.750 C 397.044 68.117,397.078 68.247,397.118 68.040 C 397.158 67.832,397.156 67.532,397.115 67.373 C 397.073 67.214,397.040 67.383,397.042 67.750 M44.326 68.208 C 45.017 68.944,45.167 69.077,45.167 68.951 C 45.167 68.925,44.810 68.568,44.375 68.160 L 43.583 67.417 44.326 68.208 M161.579 85.000 C 161.579 92.104,161.600 95.010,161.625 91.458 C 161.650 87.906,161.650 82.094,161.625 78.542 C 161.600 74.990,161.579 77.896,161.579 85.000 M394.821 72.958 L 394.417 73.417 394.917 73.000 C 395.192 72.771,395.448 72.565,395.486 72.542 C 395.524 72.519,395.481 72.500,395.390 72.500 C 395.299 72.500,395.043 72.706,394.821 72.958 M156.725 74.167 C 156.725 74.946,156.754 75.265,156.789 74.875 C 156.824 74.485,156.824 73.848,156.789 73.458 C 156.754 73.069,156.725 73.387,156.725 74.167 M104.080 91.167 C 104.080 100.746,104.100 104.665,104.125 99.875 C 104.150 95.085,104.150 87.248,104.125 82.458 C 104.100 77.669,104.080 81.587,104.080 91.167 M189.917 75.167 C 189.984 75.276,197.054 75.333,210.583 75.333 C 224.113 75.333,231.182 75.276,231.250 75.167 C 231.318 75.056,224.387 75.000,210.583 75.000 C 196.779 75.000,189.848 75.056,189.917 75.167 M349.167 75.167 C 349.167 75.277,356.136 75.333,369.740 75.333 C 383.276 75.333,390.349 75.276,390.417 75.167 C 390.485 75.056,383.585 75.000,369.843 75.000 C 356.170 75.000,349.167 75.056,349.167 75.167 M108.914 84.542 L 108.917 91.583 119.833 91.585 L 130.750 91.587 119.877 91.542 L 109.004 91.498 108.957 84.499 L 108.911 77.500 108.914 84.542 M237.424 82.042 C 237.486 82.248,237.606 82.490,237.690 82.580 C 237.774 82.669,237.758 82.500,237.655 82.205 C 237.444 81.599,237.249 81.461,237.424 82.042 M295.888 84.583 C 295.889 85.225,295.919 85.467,295.955 85.121 C 295.991 84.775,295.990 84.250,295.954 83.955 C 295.917 83.659,295.887 83.942,295.888 84.583 M291.079 96.167 C 291.079 102.996,291.100 105.790,291.125 102.375 C 291.150 98.960,291.150 93.373,291.125 89.958 C 291.100 86.544,291.079 89.337,291.079 96.167 M243.246 96.250 C 243.246 103.033,243.266 105.784,243.292 102.363 C 243.317 98.941,243.317 93.391,243.292 90.029 C 243.266 86.667,243.246 89.467,243.246 96.250 M397.042 84.583 C 397.044 84.950,397.078 85.080,397.118 84.873 C 397.158 84.666,397.156 84.366,397.115 84.206 C 397.073 84.047,397.040 84.217,397.042 84.583 M2.681 85.500 C 2.686 85.638,2.755 85.900,2.833 86.083 L 2.977 86.417 2.986 86.083 C 2.991 85.900,2.922 85.638,2.833 85.500 C 2.690 85.278,2.673 85.278,2.681 85.500 M69.412 97.250 C 69.412 103.483,69.433 106.009,69.458 102.863 C 69.484 99.717,69.484 94.617,69.458 91.529 C 69.433 88.442,69.412 91.017,69.412 97.250 M90.579 97.333 C 90.579 103.521,90.600 106.052,90.625 102.958 C 90.650 99.865,90.650 94.802,90.625 91.708 C 90.600 88.615,90.579 91.146,90.579 97.333 M318.297 86.290 C 318.782 86.324,319.532 86.323,319.964 86.289 C 320.396 86.255,320.000 86.227,319.083 86.228 C 318.167 86.228,317.813 86.256,318.297 86.290 M326.053 86.292 C 328.420 86.318,332.245 86.318,334.553 86.292 C 336.861 86.265,334.925 86.244,330.250 86.244 C 325.575 86.244,323.686 86.265,326.053 86.292 M340.792 86.284 C 340.998 86.324,341.335 86.324,341.542 86.284 C 341.748 86.245,341.579 86.212,341.167 86.212 C 340.754 86.212,340.585 86.245,340.792 86.284 M185.372 90.667 C 185.372 90.987,185.406 91.119,185.448 90.958 C 185.490 90.798,185.490 90.535,185.448 90.375 C 185.406 90.215,185.372 90.346,185.372 90.667 M200.221 91.792 C 205.980 91.816,215.355 91.816,221.055 91.792 C 226.754 91.767,222.042 91.747,210.583 91.747 C 199.125 91.747,194.462 91.767,200.221 91.792 M359.458 91.792 C 365.165 91.816,374.502 91.816,380.208 91.792 C 385.915 91.767,381.246 91.747,369.833 91.747 C 358.421 91.747,353.752 91.767,359.458 91.792 M156.724 95.083 C 156.724 95.817,156.754 96.096,156.789 95.704 C 156.824 95.312,156.824 94.712,156.788 94.371 C 156.752 94.029,156.723 94.350,156.724 95.083 M108.909 101.833 C 108.909 105.546,108.931 107.065,108.958 105.208 C 108.985 103.352,108.985 100.315,108.958 98.458 C 108.931 96.602,108.909 98.121,108.909 101.833 M394.083 95.578 C 394.358 95.804,394.654 95.991,394.741 95.994 C 394.827 95.997,394.644 95.813,394.333 95.583 C 393.607 95.047,393.431 95.044,394.083 95.578 M237.426 98.485 C 237.375 98.568,237.402 98.812,237.487 99.026 C 237.628 99.381,237.639 99.367,237.613 98.875 C 237.581 98.288,237.566 98.258,237.426 98.485 M156.158 99.273 C 156.066 99.515,156.022 99.744,156.059 99.782 C 156.097 99.819,156.208 99.622,156.305 99.342 C 156.522 98.720,156.391 98.659,156.158 99.273 M397.042 101.250 C 397.044 101.617,397.078 101.747,397.118 101.540 C 397.158 101.332,397.156 101.032,397.115 100.873 C 397.073 100.714,397.040 100.883,397.042 101.250 M237.491 103.440 C 237.399 103.682,237.355 103.910,237.393 103.948 C 237.431 103.986,237.541 103.788,237.639 103.509 C 237.855 102.887,237.725 102.826,237.491 103.440 M316.500 108.231 C 316.500 108.267,316.721 108.328,316.991 108.368 C 317.261 108.407,317.444 108.378,317.398 108.303 C 317.315 108.170,316.500 108.104,316.500 108.231 " stroke="none" fill="#7c6b6b" fill-rule="evenodd"></path><path id="path4" d="M237.764 8.167 C 237.887 8.631,237.966 8.756,238.070 8.653 C 238.108 8.614,238.030 8.395,237.896 8.166 L 237.653 7.750 237.764 8.167 M343.873 30.448 C 343.851 42.383,343.890 52.182,343.958 52.224 C 344.071 52.294,344.071 37.286,343.957 16.583 C 343.933 12.275,343.895 18.514,343.873 30.448 M156.914 30.583 C 156.914 42.500,156.934 47.350,156.958 41.362 C 156.983 35.374,156.983 25.624,156.958 19.695 C 156.934 13.767,156.914 18.667,156.914 30.583 M349.081 30.667 C 349.081 42.537,349.101 47.394,349.125 41.458 C 349.149 35.523,349.149 25.810,349.125 19.875 C 349.101 13.940,349.081 18.796,349.081 30.667 M243.444 53.417 C 243.575 53.779,243.979 54.244,244.076 54.145 C 244.110 54.111,243.954 53.858,243.730 53.583 C 243.459 53.251,243.363 53.195,243.444 53.417 M190.333 53.552 C 190.333 53.581,190.577 53.825,190.875 54.094 L 191.417 54.583 190.927 54.042 C 190.471 53.537,190.333 53.423,190.333 53.552 M16.292 54.625 C 22.181 54.649,31.819 54.649,37.708 54.625 C 43.598 54.601,38.779 54.581,27.000 54.581 C 15.221 54.581,10.402 54.601,16.292 54.625 M69.292 54.625 C 75.181 54.649,84.819 54.649,90.708 54.625 C 96.598 54.601,91.779 54.581,80.000 54.581 C 68.221 54.581,63.402 54.601,69.292 54.625 M122.221 54.625 C 128.164 54.649,137.839 54.649,143.721 54.625 C 149.604 54.601,144.742 54.581,132.917 54.581 C 121.092 54.581,116.279 54.601,122.221 54.625 M168.542 54.625 C 171.177 54.651,175.490 54.651,178.125 54.625 C 180.760 54.599,178.604 54.578,173.333 54.578 C 168.063 54.578,165.906 54.599,168.542 54.625 M203.221 54.625 C 209.164 54.649,218.839 54.649,224.721 54.625 C 230.604 54.601,225.742 54.581,213.917 54.581 C 202.092 54.581,197.279 54.601,203.221 54.625 M256.458 54.625 C 262.348 54.649,271.985 54.649,277.875 54.625 C 283.765 54.601,278.946 54.581,267.167 54.581 C 255.387 54.581,250.569 54.601,256.458 54.625 M309.125 54.625 C 315.015 54.649,324.652 54.649,330.542 54.625 C 336.431 54.601,331.612 54.581,319.833 54.581 C 308.054 54.581,303.235 54.601,309.125 54.625 M362.221 54.625 C 368.164 54.649,377.839 54.649,383.721 54.625 C 389.604 54.601,384.742 54.581,372.917 54.581 C 361.092 54.581,356.279 54.601,362.221 54.625 M349.077 67.750 C 349.077 71.783,349.098 73.409,349.125 71.364 C 349.151 69.318,349.151 66.018,349.125 64.030 C 349.098 62.043,349.077 63.717,349.077 67.750 M152.167 64.052 C 152.167 64.081,152.410 64.325,152.708 64.594 L 153.250 65.083 152.760 64.542 C 152.304 64.037,152.167 63.923,152.167 64.052 M335.660 66.388 C 336.068 66.816,336.428 67.167,336.459 67.167 C 336.598 67.167,335.895 66.378,335.431 66.013 C 335.090 65.745,335.167 65.871,335.660 66.388 M43.464 67.085 C 43.559 67.270,43.811 67.569,44.026 67.751 C 44.403 68.069,44.402 68.063,44.002 67.582 C 43.339 66.783,43.283 66.731,43.464 67.085 M114.375 74.125 C 117.377 74.150,122.290 74.150,125.292 74.125 C 128.294 74.099,125.837 74.079,119.833 74.079 C 113.829 74.079,111.373 74.099,114.375 74.125 M349.077 84.417 C 349.077 88.450,349.098 90.076,349.125 88.030 C 349.151 85.985,349.151 82.685,349.125 80.697 C 349.098 78.709,349.077 80.383,349.077 84.417 M265.412 97.167 C 265.412 103.354,265.433 105.885,265.458 102.792 C 265.484 99.698,265.484 94.635,265.458 91.542 C 265.433 88.448,265.412 90.979,265.412 97.167 M349.077 101.250 C 349.077 105.283,349.098 106.909,349.125 104.864 C 349.151 102.818,349.151 99.518,349.125 97.530 C 349.098 95.543,349.077 97.217,349.077 101.250 M114.470 95.125 C 117.525 95.150,122.475 95.150,125.470 95.125 C 128.466 95.099,125.967 95.079,119.917 95.079 C 113.867 95.079,111.416 95.099,114.470 95.125 M336.409 101.875 L 335.750 102.583 336.458 101.925 C 337.117 101.312,337.243 101.167,337.117 101.167 C 337.090 101.167,336.771 101.485,336.409 101.875 M165.014 105.375 C 165.052 105.398,165.308 105.604,165.583 105.833 L 166.083 106.250 165.679 105.792 C 165.457 105.540,165.201 105.333,165.110 105.333 C 165.019 105.333,164.976 105.352,165.014 105.375 " stroke="none" fill="#8c7c7c" fill-rule="evenodd"></path></g></svg>